<svg width="1388" height="298" viewBox="0 0 1388 298" fill="none" xmlns="http://www.w3.org/2000/svg">
<path d="M162.439 145.692V149.003C162.439 197.563 140.36 222.945 98.4092 222.945C69.7062 222.945 48.7308 208.598 41.0031 178.801L37.6912 179.905C41.0031 200.874 43.211 214.117 43.211 229.567V269.298H2.36426V73.9573H43.211C43.211 82.7862 41.0031 96.0296 37.6912 114.791L41.0031 115.895C48.7308 84.9935 69.7062 71.75 98.4092 71.75C140.36 71.75 162.439 97.1332 162.439 145.692ZM43.211 142.381V152.314C43.211 185.423 57.5626 205.288 82.9537 205.288C108.345 205.288 121.593 188.734 121.593 153.418V140.174C121.593 104.858 108.345 88.3043 82.9537 88.3043C57.5626 89.4079 43.211 109.273 43.211 142.381Z" fill="#121212"/>
<path d="M178.996 187.628C178.996 158.934 203.283 147.898 244.13 141.276L284.976 133.55V112.582C284.976 90.5096 276.145 81.6807 256.273 81.6807C233.09 81.6807 224.258 94.9241 224.258 129.137L182.307 124.722C181.204 89.406 205.491 70.6445 255.169 70.6445C302.64 70.6445 324.719 86.0951 324.719 119.203V194.25C324.719 204.182 329.135 205.286 340.175 201.975L339.071 213.011C333.551 220.736 325.823 224.047 315.888 224.047C291.6 224.047 284.976 211.908 289.392 184.317L286.08 183.214C277.249 208.597 254.065 224.047 223.154 224.047C194.452 224.047 178.996 210.804 178.996 187.628ZM283.872 160.038V144.587L258.481 150.105C233.09 155.623 219.842 163.349 219.842 182.11V183.214C219.842 196.457 227.571 204.182 243.026 204.182C265.106 204.182 283.872 186.524 283.872 160.038Z" fill="#121212"/>
<path d="M357.841 220.734V73.9536H398.688C398.688 86.0934 397.584 97.1295 393.168 124.72L396.48 125.824C407.519 84.9897 421.871 72.8499 457.198 69.5391L461.614 103.751C409.727 107.062 398.688 116.995 398.688 157.828V220.734H357.841Z" fill="#121212"/>
<path d="M479.278 220.735V25.3945H520.125V96.0261C520.125 114.788 519.021 125.824 516.813 142.378L519.021 143.482L597.403 73.9537H619.482L572.011 118.098L621.69 220.735H576.427L539.996 142.378L520.125 160.036V219.631H479.278V220.735Z" fill="#121212"/>
<path d="M668.053 220.734L620.583 73.9531H661.429L684.613 151.207C689.029 166.657 692.341 179.901 695.652 195.351H698.964C702.276 179.901 705.588 166.657 708.9 152.31L729.875 75.0567H764.098L786.178 152.31C790.594 166.657 793.906 179.901 797.217 196.455H800.533C803.844 181.004 808.255 167.761 812.674 152.31L836.964 75.0567H854.625L808.255 220.734H769.618L747.539 148.999C744.227 137.963 740.915 124.719 737.603 107.062H734.291C730.979 123.616 727.668 137.963 724.356 148.999L704.484 221.838H668.053V220.734Z" fill="#121212"/>
<path d="M860.145 187.628C860.145 158.934 884.426 147.898 925.277 141.276L966.119 133.55V112.582C966.119 90.5096 957.289 81.6807 937.418 81.6807C914.237 81.6807 905.406 94.9241 905.406 129.137L863.455 124.722C862.346 89.406 886.636 70.6445 936.317 70.6445C983.788 70.6445 1005.87 86.0951 1005.87 119.203V194.25C1005.87 204.182 1010.28 205.286 1021.32 201.975L1020.22 213.011C1014.7 220.736 1006.97 224.047 997.03 224.047C972.748 224.047 966.119 211.908 970.538 184.317L967.228 183.214C958.397 209.7 935.208 224.047 905.406 224.047C876.705 224.047 860.145 210.804 860.145 187.628ZM966.119 160.038V144.587L940.728 150.105C915.337 155.623 902.096 163.349 902.096 182.11V183.214C902.096 196.457 909.817 204.182 925.277 204.182C947.357 204.182 966.119 186.524 966.119 160.038Z" fill="#121212"/>
<path d="M1023.53 238.392L1050.03 237.288C1076.52 236.185 1080.94 233.978 1084.25 227.356L1087.56 220.734L1015.8 73.9531H1061.06L1093.08 145.688C1097.49 156.724 1101.91 166.657 1106.33 179.901H1109.64C1114.05 166.657 1117.37 156.724 1121.78 145.688L1149.38 73.9531H1168.15L1109.64 213.009C1089.77 259.361 1076.52 269.294 1026.84 272.604L1023.53 238.392Z" fill="#121212"/>
<path d="M1223.35 220.735H1377.91C1382.33 220.735 1385.64 217.424 1385.64 213.009V166.657C1321.61 166.657 1269.72 114.787 1269.72 50.7773H1223.35C1218.94 50.7773 1215.62 54.0882 1215.62 58.5027V213.009C1215.62 216.32 1218.94 220.735 1223.35 220.735ZM1339.27 188.729H1246.54V97.1293C1260.89 140.17 1295.11 174.382 1339.27 188.729Z" fill="#F9956B"/>
</svg>
